<svg width="12" height="4" viewBox="0 0 12 4" fill="none" xmlns="http://www.w3.org/2000/svg">
<path fill-rule="evenodd" clip-rule="evenodd" d="M1.73333 0.720002C2.37398 0.720002 2.89333 1.23935 2.89333 1.88C2.89333 2.52065 2.37398 3.04 1.73333 3.04C1.09268 3.04 0.573334 2.52065 0.573334 1.88C0.573334 1.23935 1.09268 0.720002 1.73333 0.720002ZM5.98667 0.719788C6.62732 0.719788 7.14667 1.23914 7.14667 1.87979C7.14667 2.52044 6.62732 3.03979 5.98667 3.03979C5.34602 3.03979 4.82667 2.52044 4.82667 1.87979C4.82667 1.23914 5.34602 0.719788 5.98667 0.719788ZM10.24 0.719788C10.8807 0.719788 11.4 1.23914 11.4 1.87979C11.4 2.52044 10.8807 3.03979 10.24 3.03979C9.59935 3.03979 9.08 2.52044 9.08 1.87979C9.08 1.23914 9.59935 0.719788 10.24 0.719788Z" fill="#262626"/>
</svg>
