<svg width="16" height="19" viewBox="0 0 16 19" fill="none" xmlns="http://www.w3.org/2000/svg">
<path fill-rule="evenodd" clip-rule="evenodd" d="M0.0521851 0.95173V17.6963C0.0521851 17.8995 0.132174 18.0945 0.274854 18.2392C0.574726 18.5433 1.06436 18.5468 1.36849 18.2469L7.97942 11.7284L14.5904 18.2469C14.7351 18.3896 14.9301 18.4696 15.1333 18.4696C15.5604 18.4696 15.9067 18.1234 15.9067 17.6963V0.95173C15.9067 0.73818 15.7335 0.565063 15.52 0.565063H0.438852C0.225302 0.565063 0.0521851 0.73818 0.0521851 0.95173ZM1.21217 16.7719V1.72499H14.7466V16.7719L8.52238 10.6346C8.22128 10.3377 7.73754 10.3377 7.43644 10.6346L1.21217 16.7719Z" fill="#262626"/>
</svg>
